<?xml version="1.0" encoding="utf-8"?>
<!-- Generator: Adobe Illustrator 21.0.2, SVG Export Plug-In . SVG Version: 6.00 Build 0)  -->
<svg version="1.1" id="Capa_1" xmlns="http://www.w3.org/2000/svg" xmlns:xlink="http://www.w3.org/1999/xlink" x="0px" y="0px"
	 viewBox="0 0 80.5 96.9" style="enable-background:new 0 0 80.5 96.9;" xml:space="preserve">
<style type="text/css">
	.st0{clip-path:url(#SVGID_2_);}
	.st1{fill:#EE7B0D;}
	.st2{fill:#C5C700;}
	.st3{fill:#00A5A5;}
	.st4{fill:#35A8E0;}
	.st5{fill:#B5004C;}
</style>
<title>colorLinesMesa de trabajo 6</title>
<g>
	<defs>
		<rect id="SVGID_1_" x="-559.5" y="-2" width="640" height="100"/>
	</defs>
	<clipPath id="SVGID_2_">
		<use xlink:href="#SVGID_1_"  style="overflow:visible;"/>
	</clipPath>
	<g class="st0">
		<path class="st1" d="M43.5-292.6h-491.4v-7.5l-10.6,12l10.6,12v-6.2H43.2c3,0,2.8-0.3,2.8,2.8c0,15,0,434.1,0,434.1h8.5v-435
			C54.5-291.8,53.4-292.6,43.5-292.6"/>
		<polygon class="st2" points="50.1,-542.2 40.3,-556.1 30.4,-542.2 36,-542.2 36.1,154.6 44.5,154.6 44.5,-542.2 		"/>
		<path class="st3" d="M64.4-54.9c0-7.6-1.6-10.4-8-10.4h-348.5v-7.2l-10.6,12l10.6,12v-6.6H52.4c3.7,0,3.5-0.3,3.5,3.7
			c0,15.5,0,206.1,0,206.1h8.5L64.4-54.9z"/>
		<path class="st4" d="M26.1-445.7h-220.3v-7.5l-10.6,12l10.6,12v-6.2H23.4c3,0,2.7,0.1,2.7,4v586.1h8.5v-589.2
			C34.6-442.6,33.9-445.7,26.1-445.7"/>
		<path class="st5" d="M14.3-355h-110v-7.5l-10.6,12l10.6,12v-6.2H12.9c4.2,0,3.3-1.1,3.3,4.6v494.8h8.5v-497.7
			C24.7-353.4,23.4-355,14.3-355"/>
	</g>
</g>
</svg>
